<?xml version="1.0" encoding="UTF-8"?>
<svg xmlns="http://www.w3.org/2000/svg" xmlns:xlink="http://www.w3.org/1999/xlink" width="130pt" height="73pt" viewBox="0 0 130 73" version="1.1">
<defs>
<linearGradient id="linear0" gradientUnits="userSpaceOnUse" x1="54.4568" y1="122.5936" x2="251.779" y2="10.2057" gradientTransform="matrix(0.494297,0,0,0.496599,0,0)">
<stop offset="0" style="stop-color:rgb(0%,67.843137%,93.333333%);stop-opacity:1;"/>
<stop offset="1" style="stop-color:rgb(62.352941%,46.27451%,65.098039%);stop-opacity:1;"/>
</linearGradient>
<linearGradient id="linear1" gradientUnits="userSpaceOnUse" x1="80.247" y1="38.7607" x2="241.2622" y2="10.9511" gradientTransform="matrix(0.494297,0,0,0.496599,0,0)">
<stop offset="0" style="stop-color:rgb(92.54902%,1.176471%,48.627451%);stop-opacity:1;"/>
<stop offset="1" style="stop-color:rgb(62.352941%,46.27451%,65.098039%);stop-opacity:1;"/>
</linearGradient>
<linearGradient id="linear2" gradientUnits="userSpaceOnUse" x1="75.7205" y1="33.5582" x2="127.8253" y2="123.9392" gradientTransform="matrix(0.494297,0,0,0.496599,0,0)">
<stop offset="0" style="stop-color:rgb(92.54902%,1.176471%,48.627451%);stop-opacity:1;"/>
<stop offset="1" style="stop-color:rgb(36.078431%,17.647059%,56.470588%);stop-opacity:1;"/>
</linearGradient>
<linearGradient id="linear3" gradientUnits="userSpaceOnUse" x1="7.4647" y1="44.578" x2="129.4543" y2="125.0813" gradientTransform="matrix(0.494297,0,0,0.496599,0,0)">
<stop offset="0" style="stop-color:rgb(26.666667%,78.039216%,95.686275%);stop-opacity:1;"/>
<stop offset="1" style="stop-color:rgb(36.078431%,17.647059%,56.470588%);stop-opacity:1;"/>
</linearGradient>
</defs>
<g id="surface1">
<path style=" stroke:none;fill-rule:nonzero;fill:url(#linear0);" d="M 129.101562 5.144531 C 129.101562 3.40625 128.164062 1.800781 126.652344 0.949219 C 125.140625 0.101562 123.289062 0.140625 121.8125 1.050781 L 10.230469 67.574219 C 9.464844 67.929688 8.953125 68.671875 8.890625 69.515625 C 8.828125 70.359375 9.222656 71.167969 9.925781 71.636719 C 10.625 72.101562 11.523438 72.152344 12.273438 71.761719 C 12.300781 71.746094 12.332031 71.730469 12.359375 71.714844 L 126.308594 9.515625 C 126.503906 9.425781 126.695312 9.320312 126.878906 9.207031 L 126.894531 9.195312 C 128.269531 8.3125 129.101562 6.785156 129.101562 5.144531 Z M 129.101562 5.144531 "/>
<path style=" stroke:none;fill-rule:nonzero;fill:url(#linear1);" d="M 129.101562 5.144531 C 129.101562 2.492188 126.960938 0.339844 124.320312 0.339844 C 124.226562 0.339844 124.136719 0.34375 124.046875 0.347656 C 123.964844 0.351562 123.882812 0.359375 123.804688 0.367188 L 37.960938 12.621094 C 35.464844 13.078125 33.433594 14.894531 32.6875 17.332031 C 31.941406 19.765625 32.613281 22.417969 34.421875 24.199219 C 36.230469 25.984375 38.882812 26.609375 41.292969 25.816406 L 124.960938 9.90625 C 125.132812 9.882812 125.304688 9.851562 125.472656 9.808594 L 125.480469 9.808594 C 127.609375 9.269531 129.101562 7.351562 129.101562 5.144531 Z M 129.101562 5.144531 "/>
<path style=" stroke:none;fill-rule:nonzero;fill:url(#linear2);" d="M 71.773438 61.394531 C 71.734375 59.71875 71.207031 58.089844 70.257812 56.714844 L 45.132812 16.066406 C 43.460938 12.996094 39.75 11.695312 36.539062 13.050781 C 33.332031 14.40625 31.664062 17.984375 32.679688 21.328125 C 32.808594 21.757812 32.984375 22.175781 33.195312 22.570312 C 33.195312 22.570312 55.554688 65.460938 55.726562 65.773438 C 55.828125 65.957031 55.9375 66.136719 56.050781 66.3125 C 58.144531 69.527344 62.109375 70.957031 65.757812 69.816406 C 69.410156 68.671875 71.867188 65.234375 71.773438 61.394531 Z M 71.773438 61.394531 "/>
<path style=" stroke:none;fill-rule:nonzero;fill:url(#linear3);" d="M 71.773438 61.394531 C 71.707031 58.609375 70.300781 56.027344 68 54.472656 C 67.578125 54.183594 67.132812 53.9375 66.667969 53.730469 L 4.71875 19.351562 C 3.339844 18.617188 1.628906 19.070312 0.789062 20.390625 C -0.0507812 21.714844 0.261719 23.460938 1.503906 24.410156 L 58.050781 68.460938 C 60.667969 70.453125 64.195312 70.761719 67.121094 69.257812 C 70.042969 67.75 71.851562 64.695312 71.773438 61.394531 Z M 71.773438 61.394531 "/>
<path style=" stroke:none;fill-rule:nonzero;fill:rgb(0%,0%,0%);fill-opacity:1;" d="M 34.105469 25.328125 L 68.707031 25.328125 L 68.707031 60.089844 L 34.105469 60.089844 Z M 34.105469 25.328125 "/>
<path style=" stroke:none;fill-rule:nonzero;fill:rgb(100%,100%,100%);fill-opacity:1;" d="M 37.089844 53.570312 L 50.066406 53.570312 L 50.066406 55.742188 L 37.089844 55.742188 Z M 37.089844 53.570312 "/>
<path style=" stroke:none;fill-rule:nonzero;fill:rgb(100%,100%,100%);fill-opacity:1;" d="M 36.945312 34.480469 L 37.953125 33.523438 C 38.148438 33.832031 38.476562 34.027344 38.839844 34.050781 C 39.035156 34.046875 39.21875 33.957031 39.34375 33.804688 C 39.464844 33.652344 39.515625 33.449219 39.476562 33.257812 L 39.476562 29.671875 L 41.03125 29.671875 L 41.03125 33.265625 C 41.074219 33.851562 40.871094 34.429688 40.472656 34.859375 C 40.054688 35.253906 39.5 35.460938 38.925781 35.433594 C 38.148438 35.472656 37.402344 35.113281 36.945312 34.480469 Z M 36.945312 34.480469 "/>
<path style=" stroke:none;fill-rule:nonzero;fill:rgb(100%,100%,100%);fill-opacity:1;" d="M 41.390625 29.671875 L 45.929688 29.671875 L 45.929688 31 L 42.9375 31 L 42.9375 31.867188 L 45.644531 31.867188 L 45.644531 33.105469 L 42.9375 33.105469 L 42.9375 34.003906 L 45.96875 34.003906 L 45.96875 35.335938 L 41.390625 35.335938 Z M 41.390625 29.671875 "/>
<path style=" stroke:none;fill-rule:nonzero;fill:rgb(100%,100%,100%);fill-opacity:1;" d="M 47.972656 31.046875 L 46.289062 31.046875 L 46.289062 29.671875 L 51.226562 29.671875 L 51.226562 31.046875 L 49.535156 31.046875 L 49.535156 35.335938 L 47.972656 35.335938 Z M 47.972656 31.046875 "/>
<path style=" stroke:none;fill-rule:nonzero;fill:rgb(100%,100%,100%);fill-opacity:1;" d="M 37.089844 36.660156 L 39.980469 36.660156 C 40.542969 36.617188 41.09375 36.796875 41.519531 37.164062 C 41.761719 37.410156 41.890625 37.742188 41.882812 38.085938 L 41.882812 38.101562 C 41.894531 38.667969 41.542969 39.175781 41.011719 39.363281 C 41.675781 39.488281 42.148438 40.074219 42.132812 40.75 L 42.132812 40.765625 C 42.132812 41.738281 41.34375 42.328125 40 42.328125 L 37.089844 42.328125 Z M 40.34375 38.410156 C 40.34375 38.09375 40.09375 37.925781 39.636719 37.925781 L 38.613281 37.925781 L 38.613281 38.921875 L 39.59375 38.921875 C 40.070312 38.921875 40.34375 38.757812 40.34375 38.425781 Z M 39.804688 40.019531 L 38.613281 40.019531 L 38.613281 41.066406 L 39.820312 41.066406 C 40.304688 41.066406 40.570312 40.878906 40.570312 40.546875 L 40.570312 40.53125 C 40.570312 40.222656 40.328125 40.019531 39.804688 40.019531 Z M 39.804688 40.019531 "/>
<path style=" stroke:none;fill-rule:nonzero;fill:rgb(100%,100%,100%);fill-opacity:1;" d="M 42.367188 36.660156 L 45.035156 36.660156 C 45.703125 36.609375 46.363281 36.828125 46.871094 37.269531 C 47.210938 37.621094 47.394531 38.097656 47.371094 38.589844 L 47.371094 38.605469 C 47.398438 39.378906 46.929688 40.082031 46.210938 40.351562 L 47.554688 42.328125 L 45.757812 42.328125 L 44.621094 40.613281 L 43.929688 40.613281 L 43.929688 42.328125 L 42.367188 42.328125 Z M 44.96875 39.382812 C 45.171875 39.417969 45.378906 39.367188 45.542969 39.238281 C 45.703125 39.109375 45.800781 38.917969 45.808594 38.710938 L 45.808594 38.691406 C 45.808594 38.238281 45.476562 38.011719 44.960938 38.011719 L 43.929688 38.011719 L 43.929688 39.382812 Z M 44.96875 39.382812 "/>
<path style=" stroke:none;fill-rule:nonzero;fill:rgb(100%,100%,100%);fill-opacity:1;" d="M 49.199219 36.621094 L 50.703125 36.621094 L 53.105469 42.328125 L 51.429688 42.328125 L 51.027344 41.308594 L 48.84375 41.308594 L 48.441406 42.328125 L 46.804688 42.328125 Z M 50.566406 40.085938 L 49.941406 38.484375 L 49.304688 40.085938 Z M 50.566406 40.085938 "/>
<path style=" stroke:none;fill-rule:nonzero;fill:rgb(100%,100%,100%);fill-opacity:1;" d="M 53.289062 36.660156 L 54.855469 36.660156 L 54.855469 42.328125 L 53.289062 42.328125 Z M 53.289062 36.660156 "/>
<path style=" stroke:none;fill-rule:nonzero;fill:rgb(100%,100%,100%);fill-opacity:1;" d="M 55.242188 36.660156 L 56.699219 36.660156 L 59.019531 39.65625 L 59.019531 36.660156 L 60.566406 36.660156 L 60.566406 42.328125 L 59.203125 42.328125 L 56.789062 39.21875 L 56.789062 42.328125 L 55.242188 42.328125 Z M 55.242188 36.660156 "/>
<path style=" stroke:none;fill-rule:nonzero;fill:rgb(100%,100%,100%);fill-opacity:1;" d="M 60.664062 41.484375 L 61.535156 40.441406 C 62.046875 40.871094 62.695312 41.113281 63.363281 41.121094 C 63.789062 41.121094 64.015625 40.976562 64.015625 40.734375 L 64.015625 40.71875 C 64.015625 40.472656 63.828125 40.351562 63.054688 40.167969 C 61.855469 39.890625 60.929688 39.550781 60.929688 38.394531 L 60.929688 38.378906 C 60.929688 37.324219 61.757812 36.566406 63.113281 36.566406 C 63.949219 36.53125 64.773438 36.800781 65.433594 37.316406 L 64.652344 38.425781 C 64.195312 38.082031 63.644531 37.886719 63.074219 37.867188 C 62.695312 37.867188 62.507812 38.023438 62.507812 38.230469 L 62.507812 38.246094 C 62.507812 38.507812 62.703125 38.621094 63.492188 38.796875 C 64.78125 39.082031 65.585938 39.503906 65.585938 40.5625 L 65.585938 40.578125 C 65.585938 41.738281 64.675781 42.425781 63.304688 42.425781 C 62.339844 42.445312 61.402344 42.113281 60.664062 41.484375 Z M 60.664062 41.484375 "/>
</g>
</svg>
